<svg xmlns="http://www.w3.org/2000/svg" xmlns:xlink="http://www.w3.org/1999/xlink" xmlns:lucid="lucid" width="1963" height="1763"><g transform="translate(961.5 541.5)" lucid:page-tab-id="0_0"><path d="M-940-2.33V-54a6 6 0 0 1 6-6h408a6 6 0 0 1 6 6v51.67z" stroke="#000" stroke-width="3" fill="#f2f3f5"/><path d="M-520-2.33V494a6 6 0 0 1-6 6h-408a6 6 0 0 1-6-6V-2.33z" stroke="#000" stroke-width="3" fill="none"/><use xlink:href="#a" transform="matrix(1,0,0,1,-940,-60) translate(97.70370370370375 36.11111111111111)"/><use xlink:href="#b" transform="matrix(1,0,0,1,-940,-60) translate(211.77777777777777 36.11111111111111)"/><path d="M-60-462.33V-514a6 6 0 0 1 6-6h308a6 6 0 0 1 6 6v51.67z" stroke="#000" stroke-width="3" fill="#f2f3f5"/><path d="M260-462.33V-146a6 6 0 0 1-6 6H-54a6 6 0 0 1-6-6v-316.33z" stroke="#000" stroke-width="3" fill="none"/><use xlink:href="#c" transform="matrix(1,0,0,1,-60,-520) translate(91.60493827160496 36.11111111111111)"/><use xlink:href="#d" transform="matrix(1,0,0,1,-60,-520) translate(173.28395061728395 36.11111111111111)"/><path d="M-180 57.52V5.85a6 6 0 0 1 6-6h588a6 6 0 0 1 6 6v51.67z" stroke="#000" stroke-width="3" fill="#f2f3f5"/><path d="M420 57.52v712.63a6 6 0 0 1-6 6h-588a6 6 0 0 1-6-6V57.52z" stroke="#000" stroke-width="3" fill="none"/><use xlink:href="#e" transform="matrix(1,0,0,1,-180,-0.14915254237303088) translate(129.58024691358028 36.11111111111111)"/><use xlink:href="#f" transform="matrix(1,0,0,1,-180,-0.14915254237303088) translate(405.33333333333337 36.11111111111111)"/><path d="M620 297.67V246a6 6 0 0 1 6-6h348a6 6 0 0 1 6 6v51.67z" stroke="#000" stroke-width="3" fill="#f2f3f5"/><path d="M980 297.67v414.66a6 6 0 0 1-6 6H626a6 6 0 0 1-6-6V297.67z" stroke="#000" stroke-width="3" fill="none"/><use xlink:href="#g" transform="matrix(1,0,0,1,620,240) translate(93.38271604938274 36.11111111111111)"/><use xlink:href="#h" transform="matrix(1,0,0,1,620,240) translate(191.65432098765433 36.11111111111111)"/><path d="M620 877.67V826a6 6 0 0 1 6-6h308a6 6 0 0 1 6 6v51.67z" stroke="#000" stroke-width="3" fill="#f2f3f5"/><path d="M940 877.67V1194a6 6 0 0 1-6 6H626a6 6 0 0 1-6-6V877.67z" stroke="#000" stroke-width="3" fill="none"/><use xlink:href="#i" transform="matrix(1,0,0,1,620,820) translate(58.02469135802474 36.11111111111111)"/><use xlink:href="#j" transform="matrix(1,0,0,1,620,820) translate(184.5432098765432 36.11111111111111)"/><path d="M-940 6a6 6 0 0 1 6-6h408a6 6 0 0 1 6 6v490.33a6 6 0 0 1-6 6h-408a6 6 0 0 1-6-6z" stroke="#000" stroke-width="3" fill="#fff"/><use xlink:href="#k" transform="matrix(1,0,0,1,-935,5) translate(50.78395061728395 101.92013888888889)"/><use xlink:href="#l" transform="matrix(1,0,0,1,-935,5) translate(283.3395061728395 101.92013888888889)"/><use xlink:href="#m" transform="matrix(1,0,0,1,-935,5) translate(205 139.25347222222223)"/><use xlink:href="#n" transform="matrix(1,0,0,1,-935,5) translate(50.351851851851876 176.58680555555554)"/><use xlink:href="#o" transform="matrix(1,0,0,1,-935,5) translate(225.78395061728398 176.58680555555554)"/><use xlink:href="#p" transform="matrix(1,0,0,1,-935,5) translate(326.89506172839504 176.58680555555554)"/><use xlink:href="#m" transform="matrix(1,0,0,1,-935,5) translate(205 213.92013888888889)"/><use xlink:href="#q" transform="matrix(1,0,0,1,-935,5) translate(28.14197530864203 251.2534722222222)"/><use xlink:href="#o" transform="matrix(1,0,0,1,-935,5) translate(215.24074074074076 251.2534722222222)"/><use xlink:href="#r" transform="matrix(1,0,0,1,-935,5) translate(316.35185185185185 251.2534722222222)"/><use xlink:href="#m" transform="matrix(1,0,0,1,-935,5) translate(205 288.58680555555554)"/><use xlink:href="#s" transform="matrix(1,0,0,1,-935,5) translate(78.13580246913583 325.9201388888888)"/><use xlink:href="#t" transform="matrix(1,0,0,1,-935,5) translate(190.04938271604937 325.9201388888888)"/><use xlink:href="#u" transform="matrix(1,0,0,1,-935,5) translate(314.58024691358025 325.9201388888888)"/><use xlink:href="#v" transform="matrix(1,0,0,1,-935,5) translate(83.92592592592595 363.2534722222222)"/><use xlink:href="#w" transform="matrix(1,0,0,1,-935,5) translate(116.07407407407409 400.58680555555543)"/><path d="M-60-465.83a6 6 0 0 1 6-6h308a6 6 0 0 1 6 6v334a6 6 0 0 1-6 6H-54a6 6 0 0 1-6-6z" stroke="#000" stroke-width="3" fill="#fff"/><use xlink:href="#m" transform="matrix(1,0,0,1,-55,-466.83333333333326) translate(155 30.138888888888886)"/><use xlink:href="#m" transform="matrix(1,0,0,1,-55,-466.83333333333326) translate(155 67.47222222222221)"/><use xlink:href="#n" transform="matrix(1,0,0,1,-55,-466.83333333333326) translate(20.141975308641975 104.80555555555554)"/><use xlink:href="#x" transform="matrix(1,0,0,1,-55,-466.83333333333326) translate(195.57407407407408 104.80555555555554)"/><use xlink:href="#p" transform="matrix(1,0,0,1,-55,-466.83333333333326) translate(138.62345679012347 142.13888888888886)"/><use xlink:href="#m" transform="matrix(1,0,0,1,-55,-466.83333333333326) translate(155 179.4722222222222)"/><use xlink:href="#n" transform="matrix(1,0,0,1,-55,-466.83333333333326) translate(20.53086419753086 216.80555555555551)"/><use xlink:href="#y" transform="matrix(1,0,0,1,-55,-466.83333333333326) translate(195.96296296296296 216.80555555555551)"/><use xlink:href="#z" transform="matrix(1,0,0,1,-55,-466.83333333333326) translate(272.96296296296293 216.80555555555551)"/><use xlink:href="#A" transform="matrix(1,0,0,1,-55,-466.83333333333326) translate(95.4135802469136 254.13888888888883)"/><use xlink:href="#p" transform="matrix(1,0,0,1,-55,-466.83333333333326) translate(181.83333333333331 254.13888888888883)"/><use xlink:href="#m" transform="matrix(1,0,0,1,-55,-466.83333333333326) translate(155 291.4722222222222)"/><use xlink:href="#B" transform="matrix(1,0,0,1,-55,-466.83333333333326) translate(0 328.80555555555543)"/><path d="M-180 63.52a6 6 0 0 1 6-6h588a6 6 0 0 1 6 6v706.63a6 6 0 0 1-6 6h-588a6 6 0 0 1-6-6z" stroke="#000" stroke-width="3" fill="#fff"/><use xlink:href="#k" transform="matrix(1,0,0,1,-175,62.517514124293655) translate(140.78395061728395 58.123263888888886)"/><use xlink:href="#l" transform="matrix(1,0,0,1,-175,62.517514124293655) translate(373.3395061728395 58.123263888888886)"/><use xlink:href="#m" transform="matrix(1,0,0,1,-175,62.517514124293655) translate(295 95.45659722222221)"/><use xlink:href="#C" transform="matrix(1,0,0,1,-175,62.517514124293655) translate(208.06172839506175 132.78993055555554)"/><use xlink:href="#l" transform="matrix(1,0,0,1,-175,62.517514124293655) translate(306.0617283950617 132.78993055555554)"/><use xlink:href="#m" transform="matrix(1,0,0,1,-175,62.517514124293655) translate(295 170.12326388888889)"/><use xlink:href="#D" transform="matrix(1,0,0,1,-175,62.517514124293655) translate(156.42592592592598 207.4565972222222)"/><use xlink:href="#E" transform="matrix(1,0,0,1,-175,62.517514124293655) translate(239.73456790123458 207.4565972222222)"/><use xlink:href="#l" transform="matrix(1,0,0,1,-175,62.517514124293655) translate(357.6975308641975 207.4565972222222)"/><use xlink:href="#m" transform="matrix(1,0,0,1,-175,62.517514124293655) translate(295 244.78993055555551)"/><use xlink:href="#F" transform="matrix(1,0,0,1,-175,62.517514124293655) translate(184.38271604938274 282.1232638888888)"/><use xlink:href="#G" transform="matrix(1,0,0,1,-175,62.517514124293655) translate(288.60493827160496 282.1232638888888)"/><use xlink:href="#p" transform="matrix(1,0,0,1,-175,62.517514124293655) translate(372.8641975308642 282.1232638888888)"/><use xlink:href="#m" transform="matrix(1,0,0,1,-175,62.517514124293655) translate(295 319.4565972222222)"/><use xlink:href="#H" transform="matrix(1,0,0,1,-175,62.517514124293655) translate(108.9814814814815 356.78993055555543)"/><use xlink:href="#G" transform="matrix(1,0,0,1,-175,62.517514124293655) translate(348.537037037037 356.78993055555543)"/><use xlink:href="#I" transform="matrix(1,0,0,1,-175,62.517514124293655) translate(432.7962962962963 356.78993055555543)"/><use xlink:href="#m" transform="matrix(1,0,0,1,-175,62.517514124293655) translate(295 394.1232638888888)"/><use xlink:href="#J" transform="matrix(1,0,0,1,-175,62.517514124293655) translate(186.97530864197535 431.45659722222206)"/><use xlink:href="#u" transform="matrix(1,0,0,1,-175,62.517514124293655) translate(385.7407407407407 431.45659722222206)"/><use xlink:href="#K" transform="matrix(1,0,0,1,-175,62.517514124293655) translate(32.02469135802477 468.78993055555543)"/><use xlink:href="#L" transform="matrix(1,0,0,1,-175,62.517514124293655) translate(448.48148148148147 468.78993055555543)"/><use xlink:href="#M" transform="matrix(1,0,0,1,-175,62.517514124293655) translate(144.7592592592593 506.1232638888887)"/><use xlink:href="#m" transform="matrix(1,0,0,1,-175,62.517514124293655) translate(295 543.4565972222221)"/><use xlink:href="#N" transform="matrix(1,0,0,1,-175,62.517514124293655) translate(129.50617283950618 580.7899305555554)"/><use xlink:href="#O" transform="matrix(1,0,0,1,-175,62.517514124293655) translate(206.85185185185185 580.7899305555554)"/><use xlink:href="#P" transform="matrix(1,0,0,1,-175,62.517514124293655) translate(394.9012345679012 580.7899305555554)"/><use xlink:href="#m" transform="matrix(1,0,0,1,-175,62.517514124293655) translate(295 618.1232638888888)"/><use xlink:href="#Q" transform="matrix(1,0,0,1,-175,62.517514124293655) translate(116.06790123456793 655.4565972222222)"/><use xlink:href="#O" transform="matrix(1,0,0,1,-175,62.517514124293655) translate(218.12962962962962 655.4565972222222)"/><use xlink:href="#R" transform="matrix(1,0,0,1,-175,62.517514124293655) translate(406.179012345679 655.4565972222222)"/><path d="M620 303.67a6 6 0 0 1 6-6h348a6 6 0 0 1 6 6v408.66a6 6 0 0 1-6 6H626a6 6 0 0 1-6-6z" stroke="#000" stroke-width="3" fill="#fff"/><g><use xlink:href="#m" transform="matrix(1,0,0,1,625,302.66666666666663) translate(175 82.68576388888889)"/><use xlink:href="#m" transform="matrix(1,0,0,1,625,302.66666666666663) translate(175 120.01909722222221)"/><use xlink:href="#S" transform="matrix(1,0,0,1,625,302.66666666666663) translate(35.30246913580248 157.35243055555554)"/><use xlink:href="#T" transform="matrix(1,0,0,1,625,302.66666666666663) translate(115.5 157.35243055555554)"/><use xlink:href="#l" transform="matrix(1,0,0,1,625,302.66666666666663) translate(238.82098765432096 157.35243055555554)"/><use xlink:href="#m" transform="matrix(1,0,0,1,625,302.66666666666663) translate(175 194.68576388888889)"/><use xlink:href="#F" transform="matrix(1,0,0,1,625,302.66666666666663) translate(23.290123456790127 232.0190972222222)"/><use xlink:href="#T" transform="matrix(1,0,0,1,625,302.66666666666663) translate(127.51234567901233 232.0190972222222)"/><use xlink:href="#l" transform="matrix(1,0,0,1,625,302.66666666666663) translate(250.83333333333331 232.0190972222222)"/><use xlink:href="#m" transform="matrix(1,0,0,1,625,302.66666666666663) translate(175 269.35243055555554)"/><use xlink:href="#U" transform="matrix(1,0,0,1,625,302.66666666666663) translate(103.70370370370372 306.6857638888888)"/><use xlink:href="#l" transform="matrix(1,0,0,1,625,302.66666666666663) translate(170.41975308641975 306.6857638888888)"/><use xlink:href="#B" transform="matrix(1,0,0,1,625,302.66666666666663) translate(0 344.0190972222222)"/></g><path d="M620 883.67a6 6 0 0 1 6-6h308a6 6 0 0 1 6 6V1194a6 6 0 0 1-6 6H626a6 6 0 0 1-6-6z" stroke="#000" stroke-width="3" fill="#fff"/><g><use xlink:href="#V" transform="matrix(1,0,0,1,625,882.6666666666665) translate(81.67283950617286 127.59201388888889)"/><use xlink:href="#l" transform="matrix(1,0,0,1,625,882.6666666666665) translate(152.45061728395063 127.59201388888889)"/><use xlink:href="#m" transform="matrix(1,0,0,1,625,882.6666666666665) translate(155 164.9253472222222)"/><use xlink:href="#W" transform="matrix(1,0,0,1,625,882.6666666666665) translate(52.24691358024694 202.25868055555551)"/><use xlink:href="#X" transform="matrix(1,0,0,1,625,882.6666666666665) translate(181.87654320987653 202.25868055555551)"/></g><path d="M-498.5 355.73H-356a6 6 0 0 1 6 6v49.1a6 6 0 0 0 6 6h124" stroke="#5e5e5e" stroke-width="3" fill="none"/><path d="M-508.5 365.73v-20M-518.5 355.73h20M-498.5 365.73v-20" stroke="#5e5e5e" stroke-width="3" fill="#fff"/><path d="M-182.17 426.83l-20-10 20-10" stroke="#5e5e5e" stroke-width="3" fill="#fff" fill-opacity="0"/><path d="M-182.17 416.83h-20M-202.17 416.83c0 5.53-4.48 10-10 10s-10-4.47-10-10c0-5.52 4.48-10 10-10s10 4.48 10 10" stroke="#5e5e5e" stroke-width="3" fill="#fff"/><path d="M-498.5 251.17H-296a6 6 0 0 0 6-6v-538a6 6 0 0 1 6-6h184" stroke="#5e5e5e" stroke-width="3" fill="none"/><path d="M-508.5 261.17v-20M-518.5 251.17h20M-498.5 261.17v-20" stroke="#5e5e5e" stroke-width="3" fill="#fff"/><path d="M-62.17-288.83l-20-10 20-10" stroke="#5e5e5e" stroke-width="3" fill="#fff" fill-opacity="0"/><path d="M-62.17-298.83h-20M-82.17-298.83c0 5.52-4.48 10-10 10s-10-4.48-10-10c0-5.53 4.48-10 10-10s10 4.47 10 10" stroke="#5e5e5e" stroke-width="3" fill="#fff"/><path d="M441.5 416.83h14a6 6 0 0 0 6-6V-328a6 6 0 0 0-6-6h-174" stroke="#5e5e5e" stroke-width="3" fill="none"/><path d="M431.5 426.83v-20M421.5 416.83h20M441.5 426.83v-20" stroke="#5e5e5e" stroke-width="3" fill="#fff"/><path d="M262.17-344l20 10-20 10" stroke="#5e5e5e" stroke-width="3" fill="#fff" fill-opacity="0"/><path d="M262.17-334h20M282.17-324v-20" stroke="#5e5e5e" stroke-width="3" fill="#fff"/><path d="M441.5 704H514a6 6 0 0 1 6 6v322.83a6 6 0 0 0 6 6h72.5" stroke="#5e5e5e" stroke-width="3" fill="none"/><path d="M431.5 714v-20M421.5 704h20M441.5 714v-20" stroke="#5e5e5e" stroke-width="3" fill="#fff"/><path d="M617.83 1048.83l-20-10 20-10" stroke="#5e5e5e" stroke-width="3" fill="#fff" fill-opacity="0"/><path d="M617.83 1038.83h-20M597.83 1028.83v20" stroke="#5e5e5e" stroke-width="3" fill="#fff"/><path d="M441.5 638.6H514a6 6 0 0 0 6-6V514a6 6 0 0 1 6-6h72.5" stroke="#5e5e5e" stroke-width="3" fill="none"/><path d="M431.5 648.6v-20M421.5 638.6h20M441.5 648.6v-20" stroke="#5e5e5e" stroke-width="3" fill="#fff"/><path d="M617.83 518l-20-10 20-10" stroke="#5e5e5e" stroke-width="3" fill="#fff" fill-opacity="0"/><path d="M617.83 508h-20M597.83 498v20" stroke="#5e5e5e" stroke-width="3" fill="#fff"/><defs><path fill="#333" d="M127-220V0H93v-220H8v-28h204v28h-85" id="Y"/><path fill="#333" d="M100-194c63 0 86 42 84 106H49c0 40 14 67 53 68 26 1 43-12 49-29l28 8c-11 28-37 45-77 45C44 4 14-33 15-96c1-61 26-98 85-98zm52 81c6-60-76-77-97-28-3 7-6 17-6 28h103" id="Z"/><path fill="#333" d="M141-36C126-15 110 5 73 4 37 3 15-17 15-53c-1-64 63-63 125-63 3-35-9-54-41-54-24 1-41 7-42 31l-33-3c5-37 33-52 76-52 45 0 72 20 72 64v82c-1 20 7 32 28 27v20c-31 9-61-2-59-35zM48-53c0 20 12 33 32 33 41-3 63-29 60-74-43 2-92-5-92 41" id="aa"/><path fill="#333" d="M6-190h153v23H98V0H67v-167H6v-23" id="ab"/><path fill="#333" d="M115-194c55 1 70 41 70 98S169 2 115 4C84 4 66-9 55-30l1 105H24l-1-265h31l2 30c10-21 28-34 59-34zm-8 174c40 0 45-34 45-75s-6-73-45-74c-42 0-51 32-51 76 0 43 10 73 51 73" id="ac"/><path fill="#333" d="M33-154v-36h34v36H33zM33 0v-36h34V0H33" id="ad"/><g id="a"><use transform="matrix(0.0987654320987654,0,0,0.0987654320987654,0,0)" xlink:href="#Y"/><use transform="matrix(0.0987654320987654,0,0,0.0987654320987654,19.654320987654316,0)" xlink:href="#Z"/><use transform="matrix(0.0987654320987654,0,0,0.0987654320987654,39.40740740740739,0)" xlink:href="#aa"/><use transform="matrix(0.0987654320987654,0,0,0.0987654320987654,58.37037037037035,0)" xlink:href="#ab"/><use transform="matrix(0.0987654320987654,0,0,0.0987654320987654,74.56790123456787,0)" xlink:href="#ac"/><use transform="matrix(0.0987654320987654,0,0,0.0987654320987654,94.32098765432094,0)" xlink:href="#ad"/></g><path fill="#333" d="M59-47c-2 24 18 29 38 22v24C64 9 27 4 27-40v-127H5v-23h24l9-43h21v43h35v23H59v120" id="ae"/><path fill="#333" d="M106-169C34-169 62-67 57 0H25v-261h32l-1 103c12-21 28-36 61-36 89 0 53 116 60 194h-32v-121c2-32-8-49-39-48" id="af"/><path fill="#333" d="M100-194c63 0 86 42 84 106H49c0 40 14 67 53 68 26 1 43-12 49-29l28 8c-11 28-37 45-77 45C44 4 14-33 15-96c1-61 26-98 85-98zm52 81c6-60-76-77-97-28-3 7-6 17-6 28h103" id="ag"/><path fill="#333" d="M141-36C126-15 110 5 73 4 37 3 15-17 15-53c-1-64 63-63 125-63 3-35-9-54-41-54-24 1-41 7-42 31l-33-3c5-37 33-52 76-52 45 0 72 20 72 64v82c-1 20 7 32 28 27v20c-31 9-61-2-59-35zM48-53c0 20 12 33 32 33 41-3 63-29 60-74-43 2-92-5-92 41" id="ah"/><path fill="#333" d="M114-163C36-179 61-72 57 0H25l-1-190h30c1 12-1 29 2 39 6-27 23-49 58-41v29" id="ai"/><g id="b"><use transform="matrix(0.0987654320987654,0,0,0.0987654320987654,0,0)" xlink:href="#ae"/><use transform="matrix(0.0987654320987654,0,0,0.0987654320987654,9.876543209876539,0)" xlink:href="#af"/><use transform="matrix(0.0987654320987654,0,0,0.0987654320987654,29.62962962962962,0)" xlink:href="#ag"/><use transform="matrix(0.0987654320987654,0,0,0.0987654320987654,49.382716049382694,0)" xlink:href="#ah"/><use transform="matrix(0.0987654320987654,0,0,0.0987654320987654,69.13580246913577,0)" xlink:href="#ae"/><use transform="matrix(0.0987654320987654,0,0,0.0987654320987654,79.01234567901231,0)" xlink:href="#ag"/><use transform="matrix(0.0987654320987654,0,0,0.0987654320987654,98.76543209876539,0)" xlink:href="#ai"/></g><path fill="#333" d="M200-71c5 87-137 96-174 38-6-8-10-16-14-25l29-13c12 25 29 48 67 48 33 0 58-14 58-48 0-41-36-45-82-44v-26c42 2 76-5 75-43-1-27-20-40-49-40-34 0-53 18-62 43l-31-10c14-38 43-60 94-60 47 0 79 19 81 64 1 36-22 50-49 58 33 5 55 22 57 58" id="aj"/><path fill="#333" d="M153 0v-167H87C74-108 81-27 38 0 29 5 12 6 2 1v-22c51 4 39-64 49-112 5-25 4-25 8-57h126V0h-32" id="ak"/><g id="c"><use transform="matrix(0.0987654320987654,0,0,0.0987654320987654,0,0)" xlink:href="#aj"/><use transform="matrix(0.0987654320987654,0,0,0.0987654320987654,21.43209876543209,0)" xlink:href="#aa"/><use transform="matrix(0.0987654320987654,0,0,0.0987654320987654,41.18518518518517,0)" xlink:href="#ak"/><use transform="matrix(0.0987654320987654,0,0,0.0987654320987654,61.9259259259259,0)" xlink:href="#ad"/></g><path fill="#333" d="M24 0v-261h32V0H24" id="al"/><g id="d"><use transform="matrix(0.0987654320987654,0,0,0.0987654320987654,0,0)" xlink:href="#af"/><use transform="matrix(0.0987654320987654,0,0,0.0987654320987654,19.753086419753078,0)" xlink:href="#ah"/><use transform="matrix(0.0987654320987654,0,0,0.0987654320987654,39.506172839506156,0)" xlink:href="#al"/><use transform="matrix(0.0987654320987654,0,0,0.0987654320987654,47.308641975308625,0)" xlink:href="#al"/></g><path fill="#333" d="M197 0v-219H63V0H30v-248h201V0h-34" id="am"/><path fill="#333" d="M147-167H93C83-118 77-63 59-23h88v-144zM24-23c26-44 31-102 41-167h113v167h26v95h-29V0H32v72H4v-95h20" id="an"/><path fill="#333" d="M96-169c-40 0-48 33-48 73s9 75 48 75c24 0 41-14 43-38l32 2c-6 37-31 61-74 61-59 0-76-41-82-99-10-93 101-131 147-64 4 7 5 14 7 22l-32 3c-4-21-16-35-41-35" id="ao"/><path fill="#333" d="M176-55C176 11 93 0 25 0v-190c61 3 142-15 144 47 1 29-21 35-39 44 27 3 46 16 46 44zm-34 0c0-41-47-30-85-32v64c38-1 85 8 85-32zm-6-83c0-36-44-26-79-28v56c34-2 79 8 79-28" id="ap"/><path fill="#333" d="M57-190v80h85v-80h32V0h-32v-87H57V0H25v-190h32" id="aq"/><path fill="#333" d="M56-190L54-37l88-153h34V0h-30l2-153L59 0H25v-190h31" id="ar"/><g id="e"><use transform="matrix(0.0987654320987654,0,0,0.0987654320987654,0,0)" xlink:href="#am"/><use transform="matrix(0.0987654320987654,0,0,0.0987654320987654,25.481481481481474,0)" xlink:href="#ac"/><use transform="matrix(0.0987654320987654,0,0,0.0987654320987654,45.234567901234556,0)" xlink:href="#Z"/><use transform="matrix(0.0987654320987654,0,0,0.0987654320987654,64.19753086419752,0)" xlink:href="#an"/><use transform="matrix(0.0987654320987654,0,0,0.0987654320987654,84.93827160493825,0)" xlink:href="#ao"/><use transform="matrix(0.0987654320987654,0,0,0.0987654320987654,102.71604938271601,0)" xlink:href="#ab"/><use transform="matrix(0.0987654320987654,0,0,0.0987654320987654,118.51851851851848,0)" xlink:href="#aa"/><use transform="matrix(0.0987654320987654,0,0,0.0987654320987654,138.27160493827157,0)" xlink:href="#ap"/><use transform="matrix(0.0987654320987654,0,0,0.0987654320987654,156.34567901234564,0)" xlink:href="#ak"/><use transform="matrix(0.0987654320987654,0,0,0.0987654320987654,177.08641975308637,0)" xlink:href="#Z"/><use transform="matrix(0.0987654320987654,0,0,0.0987654320987654,196.83950617283946,0)" xlink:href="#aq"/><use transform="matrix(0.0987654320987654,0,0,0.0987654320987654,216.39506172839498,0)" xlink:href="#ar"/><use transform="matrix(0.0987654320987654,0,0,0.0987654320987654,236.24691358024683,0)" xlink:href="#Z"/><use transform="matrix(0.0987654320987654,0,0,0.0987654320987654,255.99999999999997,0)" xlink:href="#ad"/></g><path fill="#333" d="M115-194c55 1 70 41 70 98S169 2 115 4C84 4 66-9 55-30l1 105H24l-1-265h31l2 30c10-21 28-34 59-34zm-8 174c40 0 45-34 45-75s-6-73-45-74c-42 0-51 32-51 76 0 43 10 73 51 73" id="as"/><path fill="#333" d="M179-190L93 31C79 59 56 82 12 73V49c39 6 53-20 64-50L1-190h34L92-34l54-156h33" id="at"/><g id="f"><use transform="matrix(0.0987654320987654,0,0,0.0987654320987654,0,0)" xlink:href="#as"/><use transform="matrix(0.0987654320987654,0,0,0.0987654320987654,19.753086419753078,0)" xlink:href="#al"/><use transform="matrix(0.0987654320987654,0,0,0.0987654320987654,27.55555555555554,0)" xlink:href="#ah"/><use transform="matrix(0.0987654320987654,0,0,0.0987654320987654,47.30864197530862,0)" xlink:href="#at"/></g><path fill="#333" d="M206-28h31V72h-32V0H34v72H3V-28h25c38-50 38-143 51-220h127v220zm-32 0v-192h-66C95-156 94-78 66-28h108" id="au"/><g id="g"><use transform="matrix(0.0987654320987654,0,0,0.0987654320987654,0,0)" xlink:href="#au"/><use transform="matrix(0.0987654320987654,0,0,0.0987654320987654,23.999999999999993,0)" xlink:href="#aa"/><use transform="matrix(0.0987654320987654,0,0,0.0987654320987654,42.96296296296295,0)" xlink:href="#ab"/><use transform="matrix(0.0987654320987654,0,0,0.0987654320987654,58.76543209876541,0)" xlink:href="#aa"/><use transform="matrix(0.0987654320987654,0,0,0.0987654320987654,78.51851851851849,0)" xlink:href="#ad"/></g><path fill="#333" d="M30-248c118-7 216 8 213 122C240-48 200 0 122 0H30v-248zM63-27c89 8 146-16 146-99s-60-101-146-95v194" id="av"/><g id="h"><use transform="matrix(0.0987654320987654,0,0,0.0987654320987654,0,0)" xlink:href="#av"/><use transform="matrix(0.0987654320987654,0,0,0.0987654320987654,25.58024691358024,0)" xlink:href="#ah"/><use transform="matrix(0.0987654320987654,0,0,0.0987654320987654,45.333333333333314,0)" xlink:href="#ae"/><use transform="matrix(0.0987654320987654,0,0,0.0987654320987654,55.209876543209845,0)" xlink:href="#ag"/></g><path fill="#333" d="M160-131c35 5 61 23 61 61C221 17 115-2 30 0v-248c76 3 177-17 177 60 0 33-19 50-47 57zm-97-11c50-1 110 9 110-42 0-47-63-36-110-37v79zm0 115c55-2 124 14 124-45 0-56-70-42-124-44v89" id="aw"/><path fill="#333" d="M20-138c-1-64 85-51 150-52V0h-32v-81H94L39 0H3l60-83c-28-5-43-24-43-55zm33 3c0 40 46 33 85 33v-66c-39 0-85-6-85 33" id="ax"/><path fill="#333" d="M138 0h-27L54-167c3 53 2 111 2 167H25v-190h49c16 56 39 106 51 166 11-61 34-110 50-166h48V0h-31l2-168" id="ay"/><g id="i"><use transform="matrix(0.0987654320987654,0,0,0.0987654320987654,0,0)" xlink:href="#aw"/><use transform="matrix(0.0987654320987654,0,0,0.0987654320987654,23.703703703703695,0)" xlink:href="#ac"/><use transform="matrix(0.0987654320987654,0,0,0.0987654320987654,43.45679012345677,0)" xlink:href="#Z"/><use transform="matrix(0.0987654320987654,0,0,0.0987654320987654,63.209876543209845,0)" xlink:href="#ax"/><use transform="matrix(0.0987654320987654,0,0,0.0987654320987654,82.37037037037032,0)" xlink:href="#ay"/><use transform="matrix(0.0987654320987654,0,0,0.0987654320987654,106.76543209876537,0)" xlink:href="#ad"/></g><path fill="#333" d="M127-220V0H93v-220H8v-28h204v28h-85" id="az"/><path fill="#333" d="M24-231v-30h32v30H24zM24 0v-190h32V0H24" id="aA"/><path fill="#333" d="M210-169c-67 3-38 105-44 169h-31v-121c0-29-5-50-35-48C34-165 62-65 56 0H25l-1-190h30c1 10-1 24 2 32 10-44 99-50 107 0 11-21 27-35 58-36 85-2 47 119 55 194h-31v-121c0-29-5-49-35-48" id="aB"/><g id="j"><use transform="matrix(0.0987654320987654,0,0,0.0987654320987654,0,0)" xlink:href="#az"/><use transform="matrix(0.0987654320987654,0,0,0.0987654320987654,20.345679012345673,0)" xlink:href="#aA"/><use transform="matrix(0.0987654320987654,0,0,0.0987654320987654,28.148148148148138,0)" xlink:href="#aB"/><use transform="matrix(0.0987654320987654,0,0,0.0987654320987654,57.67901234567899,0)" xlink:href="#ag"/></g><path fill="#333" d="M197 0v-115H63V0H30v-248h33v105h134v-105h34V0h-34" id="aC"/><path fill="#333" d="M100-194c62-1 85 37 85 99 1 63-27 99-86 99S16-35 15-95c0-66 28-99 85-99zM99-20c44 1 53-31 53-75 0-43-8-75-51-75s-53 32-53 75 10 74 51 75" id="aD"/><g id="k"><use transform="matrix(0.08641975308641973,0,0,0.08641975308641973,0,0)" xlink:href="#aC"/><use transform="matrix(0.08641975308641973,0,0,0.08641975308641973,22.38271604938271,0)" xlink:href="#aa"/><use transform="matrix(0.08641975308641973,0,0,0.08641975308641973,39.66666666666666,0)" xlink:href="#ar"/><use transform="matrix(0.08641975308641973,0,0,0.08641975308641973,57.037037037037024,0)" xlink:href="#ay"/><use transform="matrix(0.08641975308641973,0,0,0.08641975308641973,78.3827160493827,0)" xlink:href="#Z"/><use transform="matrix(0.08641975308641973,0,0,0.08641975308641973,95.66666666666664,0)" xlink:href="#aq"/><use transform="matrix(0.08641975308641973,0,0,0.08641975308641973,112.77777777777773,0)" xlink:href="#aD"/><use transform="matrix(0.08641975308641973,0,0,0.08641975308641973,130.0617283950617,0)" xlink:href="#ap"/><use transform="matrix(0.08641975308641973,0,0,0.08641975308641973,146.2222222222222,0)" xlink:href="#aa"/><use transform="matrix(0.08641975308641973,0,0,0.08641975308641973,163.50617283950615,0)" xlink:href="#aq"/><use transform="matrix(0.08641975308641973,0,0,0.08641975308641973,180.61728395061724,0)" xlink:href="#ar"/><use transform="matrix(0.08641975308641973,0,0,0.08641975308641973,197.98765432098764,0)" xlink:href="#Z"/><use transform="matrix(0.08641975308641973,0,0,0.08641975308641973,215.2716049382716,0)" xlink:href="#ad"/></g><path fill="#333" d="M135-143c-3-34-86-38-87 0 15 53 115 12 119 90S17 21 10-45l28-5c4 36 97 45 98 0-10-56-113-15-118-90-4-57 82-63 122-42 12 7 21 19 24 35" id="aE"/><path fill="#333" d="M117-194c89-4 53 116 60 194h-32v-121c0-31-8-49-39-48C34-167 62-67 57 0H25l-1-190h30c1 10-1 24 2 32 11-22 29-35 61-36" id="aF"/><path fill="#333" d="M177-190C167-65 218 103 67 71c-23-6-38-20-44-43l32-5c15 47 100 32 89-28v-30C133-14 115 1 83 1 29 1 15-40 15-95c0-56 16-97 71-98 29-1 48 16 59 35 1-10 0-23 2-32h30zM94-22c36 0 50-32 50-73 0-42-14-75-50-75-39 0-46 34-46 75s6 73 46 73" id="aG"/><g id="l"><use transform="matrix(0.08641975308641973,0,0,0.08641975308641973,0,0)" xlink:href="#aE"/><use transform="matrix(0.08641975308641973,0,0,0.08641975308641973,15.555555555555552,0)" xlink:href="#ae"/><use transform="matrix(0.08641975308641973,0,0,0.08641975308641973,24.197530864197525,0)" xlink:href="#ai"/><use transform="matrix(0.08641975308641973,0,0,0.08641975308641973,34.481481481481474,0)" xlink:href="#aA"/><use transform="matrix(0.08641975308641973,0,0,0.08641975308641973,41.30864197530863,0)" xlink:href="#aF"/><use transform="matrix(0.08641975308641973,0,0,0.08641975308641973,58.59259259259258,0)" xlink:href="#aG"/></g><path fill="#333" d="M94-120c-9 3-20 7-31 7V0H30v-248h33v109c41-1 47-27 65-55l36-54h35c-23 32-58 90-81 112L208 0h-39" id="aH"/><path fill="#333" d="M131-81C94-61 21-56 21-118v-72h32c4 39-16 99 29 99 19 0 33-5 49-8v-91h31V0h-31v-81" id="aI"/><g id="n"><use transform="matrix(0.08641975308641973,0,0,0.08641975308641973,0,0)" xlink:href="#aH"/><use transform="matrix(0.08641975308641973,0,0,0.08641975308641973,18.061728395061724,0)" xlink:href="#aD"/><use transform="matrix(0.08641975308641973,0,0,0.08641975308641973,34.654320987654316,0)" xlink:href="#ak"/><use transform="matrix(0.08641975308641973,0,0,0.08641975308641973,52.80246913580246,0)" xlink:href="#ar"/><use transform="matrix(0.08641975308641973,0,0,0.08641975308641973,70.17283950617283,0)" xlink:href="#aI"/><use transform="matrix(0.08641975308641973,0,0,0.08641975308641973,86.33333333333333,0)" xlink:href="#Z"/><use transform="matrix(0.08641975308641973,0,0,0.08641975308641973,103.61728395061728,0)" xlink:href="#ao"/><use transform="matrix(0.08641975308641973,0,0,0.08641975308641973,119.17283950617283,0)" xlink:href="#ab"/><use transform="matrix(0.08641975308641973,0,0,0.08641975308641973,133.34567901234567,0)" xlink:href="#ap"/><use transform="matrix(0.08641975308641973,0,0,0.08641975308641973,149.50617283950618,0)" xlink:href="#aD"/></g><path fill="#333" d="M152-53C154 19 21 22 9-41l28-8c5 36 84 42 81-4-1-29-28-34-58-35v-24c28 0 55-4 55-30 0-19-14-29-34-28-20 0-35 7-38 25l-28-3c4-33 30-46 66-46 37 0 66 15 66 50 0 27-20 41-44 44 27 5 48 17 49 47" id="aJ"/><g id="o"><use transform="matrix(0.08641975308641973,0,0,0.08641975308641973,0,0)" xlink:href="#aJ"/><use transform="matrix(0.08641975308641973,0,0,0.08641975308641973,14.259259259259256,0)" xlink:href="#aa"/><use transform="matrix(0.08641975308641973,0,0,0.08641975308641973,31.5432098765432,0)" xlink:href="#ak"/><use transform="matrix(0.08641975308641973,0,0,0.08641975308641973,50.037037037037024,0)" xlink:href="#aD"/><use transform="matrix(0.08641975308641973,0,0,0.08641975308641973,67.32098765432097,0)" xlink:href="#ap"/><use transform="matrix(0.08641975308641973,0,0,0.08641975308641973,83.82716049382714,0)" xlink:href="#ad"/></g><g id="p"><use transform="matrix(0.08641975308641973,0,0,0.08641975308641973,0,0)" xlink:href="#aA"/><use transform="matrix(0.08641975308641973,0,0,0.08641975308641973,6.827160493827159,0)" xlink:href="#aF"/><use transform="matrix(0.08641975308641973,0,0,0.08641975308641973,24.111111111111107,0)" xlink:href="#ae"/></g><path fill="#333" d="M140-251c81 0 123 46 123 126C263-46 219 4 140 4 59 4 17-45 17-125s42-126 123-126zm0 227c63 0 89-41 89-101s-29-99-89-99c-61 0-89 39-89 99S79-25 140-24" id="aK"/><path fill="#333" d="M170-190V0h-32v-167H57V0H25v-190h145" id="aL"/><g id="q"><use transform="matrix(0.08641975308641973,0,0,0.08641975308641973,0,0)" xlink:href="#aK"/><use transform="matrix(0.08641975308641973,0,0,0.08641975308641973,24.197530864197525,0)" xlink:href="#aL"/><use transform="matrix(0.08641975308641973,0,0,0.08641975308641973,40.962962962962955,0)" xlink:href="#Z"/><use transform="matrix(0.08641975308641973,0,0,0.08641975308641973,58.246913580246904,0)" xlink:href="#ac"/><use transform="matrix(0.08641975308641973,0,0,0.08641975308641973,75.53086419753085,0)" xlink:href="#Z"/><use transform="matrix(0.08641975308641973,0,0,0.08641975308641973,91.77777777777776,0)" xlink:href="#ak"/><use transform="matrix(0.08641975308641973,0,0,0.08641975308641973,109.9259259259259,0)" xlink:href="#Z"/><use transform="matrix(0.08641975308641973,0,0,0.08641975308641973,127.20987654320984,0)" xlink:href="#aq"/><use transform="matrix(0.08641975308641973,0,0,0.08641975308641973,144.32098765432096,0)" xlink:href="#ar"/><use transform="matrix(0.08641975308641973,0,0,0.08641975308641973,161.69135802469134,0)" xlink:href="#ax"/></g><path fill="#333" d="M26 75v-336h71v23H56V52h41v23H26" id="aM"/><path fill="#333" d="M3 75V52h41v-290H3v-23h71V75H3" id="aN"/><g id="r"><use transform="matrix(0.08641975308641973,0,0,0.08641975308641973,0,0)" xlink:href="#af"/><use transform="matrix(0.08641975308641973,0,0,0.08641975308641973,17.283950617283946,0)" xlink:href="#ah"/><use transform="matrix(0.08641975308641973,0,0,0.08641975308641973,34.56790123456789,0)" xlink:href="#al"/><use transform="matrix(0.08641975308641973,0,0,0.08641975308641973,41.39506172839505,0)" xlink:href="#al"/><use transform="matrix(0.08641975308641973,0,0,0.08641975308641973,48.222222222222214,0)" xlink:href="#aM"/><use transform="matrix(0.08641975308641973,0,0,0.08641975308641973,56.86419753086418,0)" xlink:href="#aN"/></g><path fill="#333" d="M212-179c-10-28-35-45-73-45-59 0-87 40-87 99 0 60 29 101 89 101 43 0 62-24 78-52l27 14C228-24 195 4 139 4 59 4 22-46 18-125c-6-104 99-153 187-111 19 9 31 26 39 46" id="aO"/><path fill="#333" d="M75-87c-4 1-14 3-19 3V0H24v-190h32v83c26-2 31-21 43-41l26-42h33l-61 86L159 0h-35" id="aP"/><g id="s"><use transform="matrix(0.08641975308641973,0,0,0.08641975308641973,0,0)" xlink:href="#aO"/><use transform="matrix(0.08641975308641973,0,0,0.08641975308641973,22.38271604938271,0)" xlink:href="#aL"/><use transform="matrix(0.08641975308641973,0,0,0.08641975308641973,39.14814814814814,0)" xlink:href="#ar"/><use transform="matrix(0.08641975308641973,0,0,0.08641975308641973,56.518518518518505,0)" xlink:href="#ao"/><use transform="matrix(0.08641975308641973,0,0,0.08641975308641973,72.41975308641973,0)" xlink:href="#aD"/><use transform="matrix(0.08641975308641973,0,0,0.08641975308641973,89.70370370370368,0)" xlink:href="#aP"/></g><path fill="#333" d="M165-267c8 67-110 75-125 20-2-7-4-13-4-20h29c1 23 13 35 36 35s34-13 36-35h28zM56-190L54-37l88-153h34V0h-30l2-153L59 0H25v-190h31" id="aQ"/><g id="t"><use transform="matrix(0.08641975308641973,0,0,0.08641975308641973,0,0)" xlink:href="#aJ"/><use transform="matrix(0.08641975308641973,0,0,0.08641975308641973,14.259259259259256,0)" xlink:href="#aa"/><use transform="matrix(0.08641975308641973,0,0,0.08641975308641973,31.5432098765432,0)" xlink:href="#aL"/><use transform="matrix(0.08641975308641973,0,0,0.08641975308641973,48.30864197530863,0)" xlink:href="#ar"/><use transform="matrix(0.08641975308641973,0,0,0.08641975308641973,65.679012345679,0)" xlink:href="#ao"/><use transform="matrix(0.08641975308641973,0,0,0.08641975308641973,81.23456790123456,0)" xlink:href="#Z"/><use transform="matrix(0.08641975308641973,0,0,0.08641975308641973,98.51851851851849,0)" xlink:href="#aQ"/></g><use transform="matrix(0.08641975308641973,0,0,0.08641975308641973,0,0)" xlink:href="#aD" id="u"/><path fill="#333" d="M141 0L90-78 38 0H4l68-98-65-92h35l48 74 47-74h35l-64 92 68 98h-35" id="aR"/><g id="v"><use transform="matrix(0.08641975308641973,0,0,0.08641975308641973,0,0)" xlink:href="#aL"/><use transform="matrix(0.08641975308641973,0,0,0.08641975308641973,16.76543209876543,0)" xlink:href="#ac"/><use transform="matrix(0.08641975308641973,0,0,0.08641975308641973,34.04938271604938,0)" xlink:href="#Z"/><use transform="matrix(0.08641975308641973,0,0,0.08641975308641973,50.64197530864197,0)" xlink:href="#an"/><use transform="matrix(0.08641975308641973,0,0,0.08641975308641973,68.7901234567901,0)" xlink:href="#ao"/><use transform="matrix(0.08641975308641973,0,0,0.08641975308641973,84.34567901234566,0)" xlink:href="#ab"/><use transform="matrix(0.08641975308641973,0,0,0.08641975308641973,98.17283950617279,0)" xlink:href="#aa"/><use transform="matrix(0.08641975308641973,0,0,0.08641975308641973,115.45679012345677,0)" xlink:href="#ap"/><use transform="matrix(0.08641975308641973,0,0,0.08641975308641973,131.27160493827157,0)" xlink:href="#ak"/><use transform="matrix(0.08641975308641973,0,0,0.08641975308641973,149.41975308641972,0)" xlink:href="#Z"/><use transform="matrix(0.08641975308641973,0,0,0.08641975308641973,166.70370370370367,0)" xlink:href="#aq"/><use transform="matrix(0.08641975308641973,0,0,0.08641975308641973,183.81481481481478,0)" xlink:href="#ar"/><use transform="matrix(0.08641975308641973,0,0,0.08641975308641973,201.1851851851852,0)" xlink:href="#ax"/><use transform="matrix(0.08641975308641973,0,0,0.08641975308641973,217.95061728395058,0)" xlink:href="#aR"/><use transform="matrix(0.08641975308641973,0,0,0.08641975308641973,233.50617283950612,0)" xlink:href="#ad"/></g><path fill="#333" d="M108 0H70L1-190h34L89-25l56-165h34" id="aS"/><path fill="#333" d="M96-169c-40 0-48 33-48 73s9 75 48 75c24 0 41-14 43-38l32 2c-6 37-31 61-74 61-59 0-76-41-82-99-10-93 101-131 147-64 4 7 5 14 7 22l-32 3c-4-21-16-35-41-35" id="aT"/><path fill="#333" d="M100-194c62-1 85 37 85 99 1 63-27 99-86 99S16-35 15-95c0-66 28-99 85-99zM99-20c44 1 53-31 53-75 0-43-8-75-51-75s-53 32-53 75 10 74 51 75" id="aU"/><path fill="#333" d="M18-100v-36l175-74v27L42-118l151 64v27" id="aV"/><path fill="#333" d="M18-27v-27l151-64-151-65v-27l175 74v36" id="aW"/><g id="w"><use transform="matrix(0.08641975308641973,0,0,0.08641975308641973,0,0)" xlink:href="#aS"/><use transform="matrix(0.08641975308641973,0,0,0.08641975308641973,15.555555555555552,0)" xlink:href="#ag"/><use transform="matrix(0.08641975308641973,0,0,0.08641975308641973,32.8395061728395,0)" xlink:href="#aT"/><use transform="matrix(0.08641975308641973,0,0,0.08641975308641973,48.39506172839505,0)" xlink:href="#ae"/><use transform="matrix(0.08641975308641973,0,0,0.08641975308641973,57.037037037037024,0)" xlink:href="#aU"/><use transform="matrix(0.08641975308641973,0,0,0.08641975308641973,74.32098765432097,0)" xlink:href="#ai"/><use transform="matrix(0.08641975308641973,0,0,0.08641975308641973,84.60493827160492,0)" xlink:href="#aV"/><use transform="matrix(0.08641975308641973,0,0,0.08641975308641973,102.75308641975306,0)" xlink:href="#as"/><use transform="matrix(0.08641975308641973,0,0,0.08641975308641973,120.03703703703701,0)" xlink:href="#al"/><use transform="matrix(0.08641975308641973,0,0,0.08641975308641973,126.86419753086417,0)" xlink:href="#ah"/><use transform="matrix(0.08641975308641973,0,0,0.08641975308641973,144.14814814814812,0)" xlink:href="#at"/><use transform="matrix(0.08641975308641973,0,0,0.08641975308641973,159.70370370370367,0)" xlink:href="#aW"/></g><g id="x"><use transform="matrix(0.08641975308641973,0,0,0.08641975308641973,0,0)" xlink:href="#ac"/><use transform="matrix(0.08641975308641973,0,0,0.08641975308641973,16.938271604938265,0)" xlink:href="#ax"/><use transform="matrix(0.08641975308641973,0,0,0.08641975308641973,33.703703703703695,0)" xlink:href="#an"/><use transform="matrix(0.08641975308641973,0,0,0.08641975308641973,51.85185185185184,0)" xlink:href="#aD"/><use transform="matrix(0.08641975308641973,0,0,0.08641975308641973,69.13580246913578,0)" xlink:href="#ap"/><use transform="matrix(0.08641975308641973,0,0,0.08641975308641973,85.64197530864195,0)" xlink:href="#ad"/></g><g id="y"><use transform="matrix(0.08641975308641973,0,0,0.08641975308641973,0,0)" xlink:href="#ay"/><use transform="matrix(0.08641975308641973,0,0,0.08641975308641973,21.345679012345673,0)" xlink:href="#Z"/><use transform="matrix(0.08641975308641973,0,0,0.08641975308641973,38.62962962962962,0)" xlink:href="#ao"/><use transform="matrix(0.08641975308641973,0,0,0.08641975308641973,54.185185185185176,0)" xlink:href="#ab"/></g><use transform="matrix(0.08641975308641973,0,0,0.08641975308641973,0,0)" xlink:href="#ap" id="z"/><g id="A"><use transform="matrix(0.08641975308641973,0,0,0.08641975308641973,0,0)" xlink:href="#ac"/><use transform="matrix(0.08641975308641973,0,0,0.08641975308641973,16.938271604938265,0)" xlink:href="#ax"/><use transform="matrix(0.08641975308641973,0,0,0.08641975308641973,33.703703703703695,0)" xlink:href="#an"/><use transform="matrix(0.08641975308641973,0,0,0.08641975308641973,51.85185185185184,0)" xlink:href="#Z"/><use transform="matrix(0.08641975308641973,0,0,0.08641975308641973,69.13580246913578,0)" xlink:href="#ad"/></g><path fill="#333" d="M213-120c-9 3-19 6-30 7V0h-34v-113c-11-1-21-4-30-7L44 0H5l89-136c-22-22-58-81-81-112h35l70 99c8 8 16 9 31 10v-109h34v109c41-1 47-27 65-55l36-54h35l-50 72c-15 22-25 36-31 40L327 0h-39" id="aX"/><g id="C"><use transform="matrix(0.08641975308641973,0,0,0.08641975308641973,0,0)" xlink:href="#aX"/><use transform="matrix(0.08641975308641973,0,0,0.08641975308641973,29.03703703703703,0)" xlink:href="#aa"/><use transform="matrix(0.08641975308641973,0,0,0.08641975308641973,46.32098765432098,0)" xlink:href="#aq"/><use transform="matrix(0.08641975308641973,0,0,0.08641975308641973,63.43209876543209,0)" xlink:href="#ac"/><use transform="matrix(0.08641975308641973,0,0,0.08641975308641973,80.71604938271602,0)" xlink:href="#ad"/></g><path fill="#333" d="M260-28V72h-32V0H30v-248h33v220h133v-220h33v220h31" id="aY"/><g id="D"><use transform="matrix(0.08641975308641973,0,0,0.08641975308641973,0,0)" xlink:href="#aY"/><use transform="matrix(0.08641975308641973,0,0,0.08641975308641973,22.987654320987648,0)" xlink:href="#Z"/><use transform="matrix(0.08641975308641973,0,0,0.08641975308641973,40.271604938271594,0)" xlink:href="#aq"/><use transform="matrix(0.08641975308641973,0,0,0.08641975308641973,57.3827160493827,0)" xlink:href="#aa"/></g><path fill="#333" d="M105-20c41 1 53-27 53-68 0-40-9-69-50-69s-54 27-54 69c0 40 12 68 51 68zM47-134c10-28 31-47 68-47 56 0 76 33 76 92 1 60-28 90-86 93C-9 9 1-201 72-238c29-15 73-21 110-26v28c-67 12-144 10-135 102" id="aZ"/><g id="E"><use transform="matrix(0.08641975308641973,0,0,0.08641975308641973,0,0)" xlink:href="#aZ"/><use transform="matrix(0.08641975308641973,0,0,0.08641975308641973,17.802469135802465,0)" xlink:href="#ar"/><use transform="matrix(0.08641975308641973,0,0,0.08641975308641973,35.172839506172835,0)" xlink:href="#ak"/><use transform="matrix(0.08641975308641973,0,0,0.08641975308641973,53.32098765432097,0)" xlink:href="#Z"/><use transform="matrix(0.08641975308641973,0,0,0.08641975308641973,69.56790123456788,0)" xlink:href="#ab"/><use transform="matrix(0.08641975308641973,0,0,0.08641975308641973,83.39506172839504,0)" xlink:href="#aa"/><use transform="matrix(0.08641975308641973,0,0,0.08641975308641973,100.67901234567898,0)" xlink:href="#ad"/></g><g id="F"><use transform="matrix(0.08641975308641973,0,0,0.08641975308641973,0,0)" xlink:href="#aC"/><use transform="matrix(0.08641975308641973,0,0,0.08641975308641973,22.38271604938271,0)" xlink:href="#aD"/><use transform="matrix(0.08641975308641973,0,0,0.08641975308641973,39.66666666666666,0)" xlink:href="#ay"/><use transform="matrix(0.08641975308641973,0,0,0.08641975308641973,61.01234567901232,0)" xlink:href="#Z"/><use transform="matrix(0.08641975308641973,0,0,0.08641975308641973,78.29629629629628,0)" xlink:href="#ac"/></g><g id="G"><use transform="matrix(0.08641975308641973,0,0,0.08641975308641973,0,0)" xlink:href="#aJ"/><use transform="matrix(0.08641975308641973,0,0,0.08641975308641973,14.259259259259256,0)" xlink:href="#aa"/><use transform="matrix(0.08641975308641973,0,0,0.08641975308641973,31.5432098765432,0)" xlink:href="#ak"/><use transform="matrix(0.08641975308641973,0,0,0.08641975308641973,49.69135802469135,0)" xlink:href="#aa"/><use transform="matrix(0.08641975308641973,0,0,0.08641975308641973,66.97530864197529,0)" xlink:href="#ad"/></g><path fill="#333" d="M195 0l-74-108L45 0H8l94-129-87-119h37l69 98 67-98h37l-84 118L233 0h-38" id="ba"/><g id="H"><use transform="matrix(0.08641975308641973,0,0,0.08641975308641973,0,0)" xlink:href="#ba"/><use transform="matrix(0.08641975308641973,0,0,0.08641975308641973,20.740740740740737,0)" xlink:href="#aa"/><use transform="matrix(0.08641975308641973,0,0,0.08641975308641973,38.02469135802468,0)" xlink:href="#ac"/><use transform="matrix(0.08641975308641973,0,0,0.08641975308641973,55.30864197530863,0)" xlink:href="#aa"/><use transform="matrix(0.08641975308641973,0,0,0.08641975308641973,72.59259259259258,0)" xlink:href="#aP"/><use transform="matrix(0.08641975308641973,0,0,0.08641975308641973,86.50617283950616,0)" xlink:href="#ab"/><use transform="matrix(0.08641975308641973,0,0,0.08641975308641973,100.33333333333331,0)" xlink:href="#Z"/><use transform="matrix(0.08641975308641973,0,0,0.08641975308641973,117.61728395061726,0)" xlink:href="#ac"/><use transform="matrix(0.08641975308641973,0,0,0.08641975308641973,134.9012345679012,0)" xlink:href="#ar"/><use transform="matrix(0.08641975308641973,0,0,0.08641975308641973,152.2716049382716,0)" xlink:href="#ao"/><use transform="matrix(0.08641975308641973,0,0,0.08641975308641973,167.82716049382714,0)" xlink:href="#ab"/><use transform="matrix(0.08641975308641973,0,0,0.08641975308641973,181.99999999999997,0)" xlink:href="#ar"/><use transform="matrix(0.08641975308641973,0,0,0.08641975308641973,199.37037037037032,0)" xlink:href="#aP"/><use transform="matrix(0.08641975308641973,0,0,0.08641975308641973,213.6296296296296,0)" xlink:href="#aa"/></g><g id="I"><use transform="matrix(0.08641975308641973,0,0,0.08641975308641973,0,0)" xlink:href="#af"/><use transform="matrix(0.08641975308641973,0,0,0.08641975308641973,17.283950617283946,0)" xlink:href="#ah"/><use transform="matrix(0.08641975308641973,0,0,0.08641975308641973,34.56790123456789,0)" xlink:href="#al"/><use transform="matrix(0.08641975308641973,0,0,0.08641975308641973,41.39506172839505,0)" xlink:href="#al"/></g><path fill="#333" d="M30 0v-248h30L58-37l132-211h39V0h-30l1-209L70 0H30" id="bb"/><path fill="#333" d="M217-194c52 0 64 44 64 98S268 2 217 4c-29 1-44-13-55-34l1 105h-30V-31C124-8 108 4 79 4 29 4 16-37 15-94c0-57 15-98 64-100 29 0 44 14 55 33l-1-100h30v101c10-23 24-34 54-34zM89-170c-37 1-41 36-41 75 0 37 3 74 40 74 39 0 45-35 45-76-1-39-6-73-44-73zM207-20c38 0 41-36 41-75 0-38-3-74-40-74-41 0-45 36-45 80 1 38 7 69 44 69" id="bc"/><path fill="#333" d="M57-190v167h83v-167h32v167h26v95h-29V0H25v-190h32" id="bd"/><g id="J"><use transform="matrix(0.08641975308641973,0,0,0.08641975308641973,0,0)" xlink:href="#bb"/><use transform="matrix(0.08641975308641973,0,0,0.08641975308641973,22.29629629629629,0)" xlink:href="#aq"/><use transform="matrix(0.08641975308641973,0,0,0.08641975308641973,39.4074074074074,0)" xlink:href="#bc"/><use transform="matrix(0.08641975308641973,0,0,0.08641975308641973,64.98765432098764,0)" xlink:href="#aD"/><use transform="matrix(0.08641975308641973,0,0,0.08641975308641973,82.2716049382716,0)" xlink:href="#ac"/><use transform="matrix(0.08641975308641973,0,0,0.08641975308641973,99.55555555555553,0)" xlink:href="#ay"/><use transform="matrix(0.08641975308641973,0,0,0.08641975308641973,120.90123456790121,0)" xlink:href="#aa"/><use transform="matrix(0.08641975308641973,0,0,0.08641975308641973,138.18518518518516,0)" xlink:href="#bd"/><use transform="matrix(0.08641975308641973,0,0,0.08641975308641973,155.98765432098762,0)" xlink:href="#ar"/><use transform="matrix(0.08641975308641973,0,0,0.08641975308641973,173.35802469135797,0)" xlink:href="#ax"/></g><path fill="#333" d="M170-56C169 10 92 0 25 0v-190h32v80c58-2 114-1 113 54zm-34 0c0-38-42-32-79-32v66c38 0 79 5 79-34zm66 56v-190h32V0h-32" id="be"/><path fill="#333" d="M0 4l72-265h28L28 4H0" id="bf"/><g id="K"><use transform="matrix(0.08641975308641973,0,0,0.08641975308641973,0,0)" xlink:href="#ao"/><use transform="matrix(0.08641975308641973,0,0,0.08641975308641973,15.90123456790123,0)" xlink:href="#aD"/><use transform="matrix(0.08641975308641973,0,0,0.08641975308641973,33.185185185185176,0)" xlink:href="#aZ"/><use transform="matrix(0.08641975308641973,0,0,0.08641975308641973,50.987654320987644,0)" xlink:href="#aD"/><use transform="matrix(0.08641975308641973,0,0,0.08641975308641973,67.58024691358023,0)" xlink:href="#an"/><use transform="matrix(0.08641975308641973,0,0,0.08641975308641973,85.72839506172838,0)" xlink:href="#aq"/><use transform="matrix(0.08641975308641973,0,0,0.08641975308641973,102.83950617283948,0)" xlink:href="#be"/><use transform="matrix(0.08641975308641973,0,0,0.08641975308641973,125.13580246913577,0)" xlink:href="#aR"/><use transform="matrix(0.08641975308641973,0,0,0.08641975308641973,140.69135802469134,0)" xlink:href="#bf"/><use transform="matrix(0.08641975308641973,0,0,0.08641975308641973,149.33333333333331,0)" xlink:href="#aJ"/><use transform="matrix(0.08641975308641973,0,0,0.08641975308641973,163.59259259259258,0)" xlink:href="#aa"/><use transform="matrix(0.08641975308641973,0,0,0.08641975308641973,180.87654320987653,0)" xlink:href="#aZ"/><use transform="matrix(0.08641975308641973,0,0,0.08641975308641973,198.67901234567896,0)" xlink:href="#ac"/><use transform="matrix(0.08641975308641973,0,0,0.08641975308641973,215.9629629629629,0)" xlink:href="#aD"/><use transform="matrix(0.08641975308641973,0,0,0.08641975308641973,233.24691358024685,0)" xlink:href="#aq"/><use transform="matrix(0.08641975308641973,0,0,0.08641975308641973,250.358024691358,0)" xlink:href="#ar"/><use transform="matrix(0.08641975308641973,0,0,0.08641975308641973,267.72839506172835,0)" xlink:href="#ac"/><use transform="matrix(0.08641975308641973,0,0,0.08641975308641973,285.0123456790123,0)" xlink:href="#aD"/><use transform="matrix(0.08641975308641973,0,0,0.08641975308641973,302.29629629629625,0)" xlink:href="#ap"/><use transform="matrix(0.08641975308641973,0,0,0.08641975308641973,318.45679012345676,0)" xlink:href="#aa"/><use transform="matrix(0.08641975308641973,0,0,0.08641975308641973,335.7407407407407,0)" xlink:href="#aq"/><use transform="matrix(0.08641975308641973,0,0,0.08641975308641973,352.8518518518518,0)" xlink:href="#aq"/><use transform="matrix(0.08641975308641973,0,0,0.08641975308641973,369.9629629629629,0)" xlink:href="#be"/><use transform="matrix(0.08641975308641973,0,0,0.08641975308641973,392.2592592592592,0)" xlink:href="#aR"/></g><g id="L"><use transform="matrix(0.08641975308641973,0,0,0.08641975308641973,0,0)" xlink:href="#ay"/><use transform="matrix(0.08641975308641973,0,0,0.08641975308641973,21.345679012345673,0)" xlink:href="#Z"/><use transform="matrix(0.08641975308641973,0,0,0.08641975308641973,38.62962962962962,0)" xlink:href="#ao"/><use transform="matrix(0.08641975308641973,0,0,0.08641975308641973,54.185185185185176,0)" xlink:href="#ab"/><use transform="matrix(0.08641975308641973,0,0,0.08641975308641973,68.01234567901233,0)" xlink:href="#aa"/><use transform="matrix(0.08641975308641973,0,0,0.08641975308641973,85.29629629629628,0)" xlink:href="#aR"/><use transform="matrix(0.08641975308641973,0,0,0.08641975308641973,100.85185185185183,0)" xlink:href="#ad"/></g><path fill="#333" d="M115-194c53 0 69 39 70 98 0 66-23 100-70 100C84 3 66-7 56-30L54 0H23l1-261h32v101c10-23 28-34 59-34zm-8 174c40 0 45-34 45-75 0-40-5-75-45-74-42 0-51 32-51 76 0 43 10 73 51 73" id="bg"/><g id="M"><use transform="matrix(0.08641975308641973,0,0,0.08641975308641973,0,0)" xlink:href="#aS"/><use transform="matrix(0.08641975308641973,0,0,0.08641975308641973,15.555555555555552,0)" xlink:href="#ag"/><use transform="matrix(0.08641975308641973,0,0,0.08641975308641973,32.8395061728395,0)" xlink:href="#aT"/><use transform="matrix(0.08641975308641973,0,0,0.08641975308641973,48.39506172839505,0)" xlink:href="#ae"/><use transform="matrix(0.08641975308641973,0,0,0.08641975308641973,57.037037037037024,0)" xlink:href="#aU"/><use transform="matrix(0.08641975308641973,0,0,0.08641975308641973,74.32098765432097,0)" xlink:href="#ai"/><use transform="matrix(0.08641975308641973,0,0,0.08641975308641973,84.60493827160492,0)" xlink:href="#aV"/><use transform="matrix(0.08641975308641973,0,0,0.08641975308641973,102.75308641975306,0)" xlink:href="#aS"/><use transform="matrix(0.08641975308641973,0,0,0.08641975308641973,118.30864197530862,0)" xlink:href="#ag"/><use transform="matrix(0.08641975308641973,0,0,0.08641975308641973,135.59259259259255,0)" xlink:href="#aT"/><use transform="matrix(0.08641975308641973,0,0,0.08641975308641973,151.1481481481481,0)" xlink:href="#ae"/><use transform="matrix(0.08641975308641973,0,0,0.08641975308641973,159.79012345679007,0)" xlink:href="#aU"/><use transform="matrix(0.08641975308641973,0,0,0.08641975308641973,177.07407407407405,0)" xlink:href="#ai"/><use transform="matrix(0.08641975308641973,0,0,0.08641975308641973,187.358024691358,0)" xlink:href="#aV"/><use transform="matrix(0.08641975308641973,0,0,0.08641975308641973,205.50617283950612,0)" xlink:href="#bg"/><use transform="matrix(0.08641975308641973,0,0,0.08641975308641973,222.79012345679007,0)" xlink:href="#aU"/><use transform="matrix(0.08641975308641973,0,0,0.08641975308641973,240.07407407407402,0)" xlink:href="#aU"/><use transform="matrix(0.08641975308641973,0,0,0.08641975308641973,257.35802469135797,0)" xlink:href="#al"/><use transform="matrix(0.08641975308641973,0,0,0.08641975308641973,264.1851851851851,0)" xlink:href="#aW"/><use transform="matrix(0.08641975308641973,0,0,0.08641975308641973,282.33333333333326,0)" xlink:href="#aW"/></g><g id="N"><use transform="matrix(0.08641975308641973,0,0,0.08641975308641973,0,0)" xlink:href="#au"/><use transform="matrix(0.08641975308641973,0,0,0.08641975308641973,20.999999999999996,0)" xlink:href="#aa"/><use transform="matrix(0.08641975308641973,0,0,0.08641975308641973,37.59259259259258,0)" xlink:href="#ab"/><use transform="matrix(0.08641975308641973,0,0,0.08641975308641973,51.41975308641974,0)" xlink:href="#aa"/></g><g id="O"><use transform="matrix(0.08641975308641973,0,0,0.08641975308641973,0,0)" xlink:href="#aL"/><use transform="matrix(0.08641975308641973,0,0,0.08641975308641973,16.76543209876543,0)" xlink:href="#ac"/><use transform="matrix(0.08641975308641973,0,0,0.08641975308641973,34.04938271604938,0)" xlink:href="#aD"/><use transform="matrix(0.08641975308641973,0,0,0.08641975308641973,51.33333333333333,0)" xlink:href="#ap"/><use transform="matrix(0.08641975308641973,0,0,0.08641975308641973,67.49382716049382,0)" xlink:href="#Z"/><use transform="matrix(0.08641975308641973,0,0,0.08641975308641973,84.08641975308642,0)" xlink:href="#an"/><use transform="matrix(0.08641975308641973,0,0,0.08641975308641973,102.23456790123454,0)" xlink:href="#Z"/><use transform="matrix(0.08641975308641973,0,0,0.08641975308641973,119.51851851851852,0)" xlink:href="#aq"/><use transform="matrix(0.08641975308641973,0,0,0.08641975308641973,136.62962962962962,0)" xlink:href="#ar"/><use transform="matrix(0.08641975308641973,0,0,0.08641975308641973,154,0)" xlink:href="#ax"/><use transform="matrix(0.08641975308641973,0,0,0.08641975308641973,170.76543209876542,0)" xlink:href="#ad"/></g><g id="P"><use transform="matrix(0.08641975308641973,0,0,0.08641975308641973,0,0)" xlink:href="#av"/><use transform="matrix(0.08641975308641973,0,0,0.08641975308641973,22.38271604938271,0)" xlink:href="#ah"/><use transform="matrix(0.08641975308641973,0,0,0.08641975308641973,39.66666666666666,0)" xlink:href="#ae"/><use transform="matrix(0.08641975308641973,0,0,0.08641975308641973,48.30864197530863,0)" xlink:href="#ag"/></g><g id="Q"><use transform="matrix(0.08641975308641973,0,0,0.08641975308641973,0,0)" xlink:href="#aw"/><use transform="matrix(0.08641975308641973,0,0,0.08641975308641973,20.740740740740737,0)" xlink:href="#ac"/><use transform="matrix(0.08641975308641973,0,0,0.08641975308641973,38.02469135802468,0)" xlink:href="#Z"/><use transform="matrix(0.08641975308641973,0,0,0.08641975308641973,55.30864197530863,0)" xlink:href="#ay"/><use transform="matrix(0.08641975308641973,0,0,0.08641975308641973,76.6543209876543,0)" xlink:href="#ax"/></g><g id="R"><use transform="matrix(0.08641975308641973,0,0,0.08641975308641973,0,0)" xlink:href="#az"/><use transform="matrix(0.08641975308641973,0,0,0.08641975308641973,17.802469135802465,0)" xlink:href="#aA"/><use transform="matrix(0.08641975308641973,0,0,0.08641975308641973,24.629629629629623,0)" xlink:href="#aB"/><use transform="matrix(0.08641975308641973,0,0,0.08641975308641973,50.469135802469125,0)" xlink:href="#ag"/></g><path fill="#333" d="M173-56C173 11 92 0 25 0v-190h32v80c58-2 117-2 116 54zm-34 0c0-39-44-31-82-32v66c39 0 82 6 82-34" id="bh"/><g id="S"><use transform="matrix(0.08641975308641973,0,0,0.08641975308641973,0,0)" xlink:href="#au"/><use transform="matrix(0.08641975308641973,0,0,0.08641975308641973,20.999999999999996,0)" xlink:href="#Z"/><use transform="matrix(0.08641975308641973,0,0,0.08641975308641973,38.28395061728394,0)" xlink:href="#aq"/><use transform="matrix(0.08641975308641973,0,0,0.08641975308641973,55.39506172839505,0)" xlink:href="#bh"/></g><g id="T"><use transform="matrix(0.08641975308641973,0,0,0.08641975308641973,0,0)" xlink:href="#ay"/><use transform="matrix(0.08641975308641973,0,0,0.08641975308641973,21.345679012345673,0)" xlink:href="#Z"/><use transform="matrix(0.08641975308641973,0,0,0.08641975308641973,38.62962962962962,0)" xlink:href="#ao"/><use transform="matrix(0.08641975308641973,0,0,0.08641975308641973,54.185185185185176,0)" xlink:href="#ax"/><use transform="matrix(0.08641975308641973,0,0,0.08641975308641973,70.9506172839506,0)" xlink:href="#bd"/><use transform="matrix(0.08641975308641973,0,0,0.08641975308641973,88.75308641975306,0)" xlink:href="#aa"/><use transform="matrix(0.08641975308641973,0,0,0.08641975308641973,106.03703703703701,0)" xlink:href="#ad"/></g><path fill="#333" d="M188-248v28H63V0H30v-248h158" id="bi"/><g id="U"><use transform="matrix(0.08641975308641973,0,0,0.08641975308641973,0,0)" xlink:href="#bi"/><use transform="matrix(0.08641975308641973,0,0,0.08641975308641973,14.691358024691358,0)" xlink:href="#aD"/><use transform="matrix(0.08641975308641973,0,0,0.08641975308641973,31.283950617283942,0)" xlink:href="#an"/><use transform="matrix(0.08641975308641973,0,0,0.08641975308641973,49.43209876543209,0)" xlink:href="#ad"/></g><path fill="#333" d="M62-147c-4 58 76 40 115 32v-133h34V0h-34v-89C118-74 28-68 28-143v-105h34v101" id="bj"/><g id="V"><use transform="matrix(0.08641975308641973,0,0,0.08641975308641973,0,0)" xlink:href="#bj"/><use transform="matrix(0.08641975308641973,0,0,0.08641975308641973,20.654320987654316,0)" xlink:href="#aa"/><use transform="matrix(0.08641975308641973,0,0,0.08641975308641973,37.938271604938265,0)" xlink:href="#ao"/><use transform="matrix(0.08641975308641973,0,0,0.08641975308641973,53.493827160493815,0)" xlink:href="#ad"/></g><path fill="#333" d="M240 0l2-218c-23 76-54 145-80 218h-23L58-218 59 0H30v-248h44l77 211c21-75 51-140 76-211h43V0h-30" id="bk"/><path fill="#333" d="M179-190L93 31C79 59 56 82 12 73V49c39 6 53-20 64-50L1-190h34L92-34l54-156h33" id="bl"/><g id="W"><use transform="matrix(0.08641975308641973,0,0,0.08641975308641973,0,0)" xlink:href="#bk"/><use transform="matrix(0.08641975308641973,0,0,0.08641975308641973,25.8395061728395,0)" xlink:href="#ar"/><use transform="matrix(0.08641975308641973,0,0,0.08641975308641973,43.209876543209866,0)" xlink:href="#aq"/><use transform="matrix(0.08641975308641973,0,0,0.08641975308641973,60.32098765432097,0)" xlink:href="#bl"/><use transform="matrix(0.08641975308641973,0,0,0.08641975308641973,75.87654320987653,0)" xlink:href="#ab"/><use transform="matrix(0.08641975308641973,0,0,0.08641975308641973,90.04938271604937,0)" xlink:href="#be"/><use transform="matrix(0.08641975308641973,0,0,0.08641975308641973,112.34567901234566,0)" xlink:href="#ad"/></g><g id="X"><use transform="matrix(0.08641975308641973,0,0,0.08641975308641973,0,0)" xlink:href="#aE"/><use transform="matrix(0.08641975308641973,0,0,0.08641975308641973,15.555555555555552,0)" xlink:href="#ae"/><use transform="matrix(0.08641975308641973,0,0,0.08641975308641973,24.197530864197525,0)" xlink:href="#ai"/><use transform="matrix(0.08641975308641973,0,0,0.08641975308641973,34.481481481481474,0)" xlink:href="#aA"/><use transform="matrix(0.08641975308641973,0,0,0.08641975308641973,41.30864197530863,0)" xlink:href="#aF"/><use transform="matrix(0.08641975308641973,0,0,0.08641975308641973,58.59259259259258,0)" xlink:href="#aG"/></g></defs></g></svg>